<svg width="140" height="32" viewBox="0 0 140 32" fill="none" xmlns="http://www.w3.org/2000/svg">
<g clip-path="url(#clip0_119_1217)">
<path d="M0 19.1125V22.4362C0 22.9025 0.249837 23.333 0.654666 23.5644L12.998 30.6177C13.3975 30.846 13.8878 30.846 14.2873 30.6177L26.6306 23.5644C27.0355 23.333 27.2853 22.9025 27.2853 22.4362V19.1125C27.2853 18.6137 26.7464 18.301 26.3133 18.5485L14.2873 25.4205C13.8878 25.6488 13.3975 25.6488 12.998 25.4205L0.971967 18.5485C0.538873 18.301 0 18.6137 0 19.1125Z" fill="#554971"/>
<path fill-rule="evenodd" clip-rule="evenodd" d="M14.2873 0.171192L26.6306 7.22454C27.0355 7.45587 27.2853 7.88638 27.2853 8.35265V12.0418C27.2853 12.5081 27.0355 12.9386 26.6306 13.1699L14.2873 20.2233C13.8878 20.4515 13.3975 20.4515 12.998 20.2233L0.654666 13.1699C0.249837 12.9386 0 12.5081 0 12.0418V8.35264C0 7.88638 0.249837 7.45587 0.654667 7.22454L12.998 0.171192C13.3975 -0.0570639 13.8878 -0.057064 14.2873 0.171192ZM5.07916 10.501C4.84411 10.3667 4.84411 10.0278 5.07916 9.89346L12.9483 5.3968C13.3786 5.15094 13.9067 5.15094 14.337 5.3968L22.2061 9.89346C22.4412 10.0278 22.4412 10.3667 22.2061 10.501L14.337 14.9977C13.9067 15.2435 13.3786 15.2435 12.9483 14.9977L5.07916 10.501Z" fill="#554971"/>
<path d="M44.6222 11.1848L42.2946 7.0736H41.297V11.1848H39.181V0.634811H43.141C43.9572 0.634811 44.6525 0.780918 45.2268 1.07313C45.8012 1.35527 46.2294 1.74321 46.5116 2.23695C46.8038 2.72062 46.9499 3.26474 46.9499 3.86932C46.9499 4.56459 46.7483 5.19436 46.3453 5.75864C45.9422 6.31284 45.3427 6.69574 44.5467 6.90734L47.0708 11.1848H44.6222ZM41.297 5.48658H43.0654C43.6398 5.48658 44.068 5.35055 44.3502 5.07849C44.6323 4.79635 44.7734 4.40841 44.7734 3.91467C44.7734 3.431 44.6323 3.05817 44.3502 2.79619C44.068 2.52413 43.6398 2.3881 43.0654 2.3881H41.297V5.48658Z" fill="black"/>
<path d="M56.6477 6.81666C56.6477 7.11895 56.6276 7.39101 56.5873 7.63284H50.4659C50.5163 8.23742 50.7279 8.71101 51.1007 9.05361C51.4735 9.3962 51.932 9.5675 52.4761 9.5675C53.2621 9.5675 53.8213 9.22994 54.1538 8.55483H56.4361C56.1943 9.36094 55.7308 10.026 55.0456 10.5499C54.3604 11.0638 53.519 11.3208 52.5215 11.3208C51.7154 11.3208 50.9899 11.1445 50.345 10.7918C49.7102 10.429 49.2114 9.92018 48.8486 9.26521C48.496 8.61025 48.3196 7.85452 48.3196 6.99803C48.3196 6.13146 48.496 5.3707 48.8486 4.71574C49.2013 4.06077 49.6951 3.55695 50.3299 3.20428C50.9647 2.85161 51.6952 2.67527 52.5215 2.67527C53.3175 2.67527 54.0279 2.84657 54.6526 3.18917C55.2874 3.53176 55.7761 4.02047 56.1187 4.65528C56.4714 5.28001 56.6477 6.00047 56.6477 6.81666ZM54.4561 6.21207C54.4461 5.66795 54.2496 5.23467 53.8667 4.91222C53.4838 4.5797 53.0152 4.41344 52.461 4.41344C51.937 4.41344 51.4937 4.57467 51.1309 4.89711C50.7783 5.20948 50.5616 5.6478 50.481 6.21207H54.4561Z" fill="black"/>
<path d="M61.3965 11.3208C60.7113 11.3208 60.0967 11.1999 59.5526 10.958C59.0084 10.7061 58.5752 10.3686 58.2527 9.94537C57.9403 9.52216 57.7691 9.05361 57.7388 8.53971H59.87C59.9103 8.86216 60.0665 9.12918 60.3385 9.34079C60.6207 9.55239 60.9683 9.65819 61.3814 9.65819C61.7845 9.65819 62.0968 9.57758 62.3185 9.41636C62.5503 9.25514 62.6662 9.04857 62.6662 8.79666C62.6662 8.5246 62.5251 8.32307 62.243 8.19208C61.9709 8.05101 61.5326 7.89987 60.928 7.73864C60.3033 7.5875 59.7894 7.43131 59.3863 7.27009C58.9933 7.10887 58.6507 6.862 58.3585 6.52948C58.0764 6.19696 57.9353 5.74856 57.9353 5.18429C57.9353 4.72077 58.0663 4.29757 58.3283 3.91467C58.6004 3.53176 58.9833 3.22947 59.477 3.00779C59.9808 2.78611 60.5703 2.67527 61.2454 2.67527C62.243 2.67527 63.039 2.92718 63.6335 3.431C64.228 3.92474 64.5555 4.59482 64.6159 5.44123H62.5906C62.5604 5.10871 62.4193 4.84673 62.1674 4.65528C61.9256 4.45375 61.5981 4.35299 61.1849 4.35299C60.802 4.35299 60.5048 4.42352 60.2932 4.56459C60.0917 4.70566 59.9909 4.90215 59.9909 5.15406C59.9909 5.4362 60.132 5.65284 60.4141 5.80398C60.6962 5.94505 61.1346 6.09116 61.7291 6.2423C62.3336 6.39345 62.8324 6.54963 63.2254 6.71086C63.6184 6.87208 63.9559 7.12399 64.2381 7.46658C64.5303 7.7991 64.6814 8.24246 64.6915 8.79666C64.6915 9.28033 64.5555 9.71361 64.2834 10.0965C64.0214 10.4794 63.6385 10.7817 63.1347 11.0034C62.641 11.215 62.0616 11.3208 61.3965 11.3208Z" fill="black"/>
<path d="M74.2125 6.81666C74.2125 7.11895 74.1923 7.39101 74.152 7.63284H68.0306C68.081 8.23742 68.2926 8.71101 68.6655 9.05361C69.0383 9.3962 69.4968 9.5675 70.0409 9.5675C70.8268 9.5675 71.3861 9.22994 71.7186 8.55483H74.0009C73.7591 9.36094 73.2955 10.026 72.6104 10.5499C71.9252 11.0638 71.0838 11.3208 70.0862 11.3208C69.2801 11.3208 68.5546 11.1445 67.9097 10.7918C67.2749 10.429 66.7761 9.92018 66.4134 9.26521C66.0607 8.61025 65.8844 7.85452 65.8844 6.99803C65.8844 6.13146 66.0607 5.3707 66.4134 4.71574C66.7661 4.06077 67.2598 3.55695 67.8946 3.20428C68.5294 2.85161 69.26 2.67527 70.0862 2.67527C70.8823 2.67527 71.5926 2.84657 72.2174 3.18917C72.8522 3.53176 73.3409 4.02047 73.6835 4.65528C74.0362 5.28001 74.2125 6.00047 74.2125 6.81666ZM72.0209 6.21207C72.0108 5.66795 71.8143 5.23467 71.4314 4.91222C71.0485 4.5797 70.58 4.41344 70.0258 4.41344C69.5018 4.41344 69.0584 4.57467 68.6957 4.89711C68.343 5.20948 68.1264 5.6478 68.0458 6.21207H72.0209Z" fill="black"/>
<path d="M75.2129 6.9678C75.2129 6.12139 75.3791 5.3707 75.7117 4.71574C76.0543 4.06077 76.5127 3.55695 77.0871 3.20428C77.6715 2.85161 78.3214 2.67527 79.0369 2.67527C79.6616 2.67527 80.2057 2.80123 80.6692 3.05314C81.1428 3.30505 81.5207 3.62245 81.8028 4.00535V2.8113H83.934V11.1848H81.8028V9.96048C81.5308 10.3535 81.1529 10.6809 80.6692 10.9429C80.1956 11.1948 79.6465 11.3208 79.0218 11.3208C78.3164 11.3208 77.6715 11.1394 77.0871 10.7767C76.5127 10.4139 76.0543 9.90506 75.7117 9.2501C75.3791 8.58506 75.2129 7.82429 75.2129 6.9678ZM81.8028 6.99803C81.8028 6.48414 81.7021 6.04582 81.5005 5.68307C81.299 5.31024 81.0269 5.0281 80.6844 4.83665C80.3418 4.63513 79.974 4.53436 79.581 4.53436C79.188 4.53436 78.8253 4.63009 78.4927 4.82154C78.1602 5.01299 77.8882 5.29513 77.6766 5.66795C77.475 6.0307 77.3743 6.46398 77.3743 6.9678C77.3743 7.47162 77.475 7.91498 77.6766 8.29788C77.8882 8.67071 78.1602 8.95788 78.4927 9.15941C78.8353 9.36094 79.1981 9.4617 79.581 9.4617C79.974 9.4617 80.3418 9.36598 80.6844 9.17453C81.0269 8.973 81.299 8.69086 81.5005 8.32811C81.7021 7.95529 81.8028 7.51193 81.8028 6.99803Z" fill="black"/>
<path d="M88.1167 4.11115C88.3888 3.66779 88.7414 3.32016 89.1747 3.06825C89.6181 2.81634 90.1219 2.69039 90.6862 2.69039V4.91222H90.1269C89.4619 4.91222 88.9581 5.06841 88.6155 5.38078C88.2829 5.69314 88.1167 6.23727 88.1167 7.01315V11.1848H86.0007V2.8113H88.1167V4.11115Z" fill="black"/>
<path d="M91.5673 6.99803C91.5673 6.13146 91.7436 5.37574 92.0963 4.73085C92.449 4.07589 92.9377 3.57207 93.5624 3.2194C94.1871 2.85665 94.9026 2.67527 95.7087 2.67527C96.7465 2.67527 97.603 2.93726 98.2781 3.46123C98.9633 3.97512 99.4218 4.70062 99.6536 5.63772H97.3713C97.2504 5.27497 97.0438 4.99284 96.7516 4.79131C96.4694 4.5797 96.1168 4.4739 95.6936 4.4739C95.089 4.4739 94.6104 4.69558 94.2577 5.13894C93.905 5.57223 93.7287 6.19192 93.7287 6.99803C93.7287 7.79406 93.905 8.41376 94.2577 8.85712C94.6104 9.2904 95.089 9.50704 95.6936 9.50704C96.5501 9.50704 97.1093 9.12414 97.3713 8.35834H99.6536C99.4218 9.26521 98.9633 9.98567 98.2781 10.5197C97.593 11.0538 96.7365 11.3208 95.7087 11.3208C94.9026 11.3208 94.1871 11.1445 93.5624 10.7918C92.9377 10.429 92.449 9.92521 92.0963 9.28033C91.7436 8.62536 91.5673 7.8646 91.5673 6.99803Z" fill="black"/>
<path d="M105.919 2.69039C106.554 2.69039 107.119 2.83146 107.612 3.11359C108.106 3.38566 108.489 3.79375 108.761 4.33787C109.043 4.87192 109.184 5.51681 109.184 6.27253V11.1848H107.068V6.55971C107.068 5.89467 106.902 5.38581 106.569 5.03314C106.237 4.67039 105.783 4.48902 105.209 4.48902C104.625 4.48902 104.161 4.67039 103.819 5.03314C103.486 5.38581 103.32 5.89467 103.32 6.55971V11.1848H101.204V0H103.32V3.85421C103.592 3.49146 103.955 3.20932 104.408 3.00779C104.861 2.79619 105.365 2.69039 105.919 2.69039Z" fill="black"/>
<path d="M42.8689 17.3238C43.9773 17.3238 44.9497 17.5404 45.7861 17.9737C46.6325 18.407 47.2824 19.0267 47.7358 19.8328C48.1993 20.6288 48.4311 21.5558 48.4311 22.6139C48.4311 23.6719 48.1993 24.5989 47.7358 25.3949C47.2824 26.1809 46.6325 26.7905 45.7861 27.2238C44.9497 27.6571 43.9773 27.8737 42.8689 27.8737H39.181V17.3238H42.8689ZM42.7934 26.0751C43.9018 26.0751 44.7583 25.7728 45.3628 25.1682C45.9674 24.5636 46.2697 23.7122 46.2697 22.6139C46.2697 21.5155 45.9674 20.6591 45.3628 20.0444C44.7583 19.4197 43.9018 19.1073 42.7934 19.1073H41.297V26.0751H42.7934Z" fill="black"/>
<path d="M49.4709 23.6568C49.4709 22.8104 49.6372 22.0597 49.9697 21.4047C50.3123 20.7497 50.7708 20.2459 51.3451 19.8933C51.9296 19.5406 52.5795 19.3642 53.2949 19.3642C53.9196 19.3642 54.4638 19.4902 54.9273 19.7421C55.4009 19.994 55.7787 20.3114 56.0609 20.6943V19.5003H58.192V27.8737H56.0609V26.6495C55.7888 27.0424 55.4109 27.3699 54.9273 27.6319C54.4537 27.8838 53.9045 28.0098 53.2798 28.0098C52.5745 28.0098 51.9296 27.8284 51.3451 27.4656C50.7708 27.1029 50.3123 26.594 49.9697 25.9391C49.6372 25.274 49.4709 24.5133 49.4709 23.6568ZM56.0609 23.687C56.0609 23.1731 55.9601 22.7348 55.7586 22.372C55.5571 21.9992 55.285 21.7171 54.9424 21.5256C54.5998 21.3241 54.232 21.2233 53.839 21.2233C53.4461 21.2233 53.0833 21.3191 52.7508 21.5105C52.4183 21.702 52.1462 21.9841 51.9346 22.3569C51.7331 22.7197 51.6323 23.153 51.6323 23.6568C51.6323 24.1606 51.7331 24.604 51.9346 24.9869C52.1462 25.3597 52.4183 25.6469 52.7508 25.8484C53.0934 26.0499 53.4561 26.1507 53.839 26.1507C54.232 26.1507 54.5998 26.0549 54.9424 25.8635C55.285 25.662 55.5571 25.3798 55.7586 25.0171C55.9601 24.6443 56.0609 24.2009 56.0609 23.687Z" fill="black"/>
<path d="M62.7224 21.2384V25.2891C62.7224 25.5713 62.7879 25.7778 62.9189 25.9088C63.0599 26.0298 63.2917 26.0902 63.6141 26.0902H64.5966V27.8737H63.2665C61.483 27.8737 60.5912 27.0072 60.5912 25.274V21.2384H59.5937V19.5003H60.5912V17.4296H62.7224V19.5003H64.5966V21.2384H62.7224Z" fill="black"/>
<path d="M65.5744 23.6568C65.5744 22.8104 65.7407 22.0597 66.0732 21.4047C66.4158 20.7497 66.8743 20.2459 67.4486 19.8933C68.033 19.5406 68.683 19.3642 69.3984 19.3642C70.0231 19.3642 70.5673 19.4902 71.0308 19.7421C71.5044 19.994 71.8822 20.3114 72.1644 20.6943V19.5003H74.2955V27.8737H72.1644V26.6495C71.8923 27.0424 71.5144 27.3699 71.0308 27.6319C70.5572 27.8838 70.008 28.0098 69.3833 28.0098C68.6779 28.0098 68.033 27.8284 67.4486 27.4656C66.8743 27.1029 66.4158 26.594 66.0732 25.9391C65.7407 25.274 65.5744 24.5133 65.5744 23.6568ZM72.1644 23.687C72.1644 23.1731 72.0636 22.7348 71.8621 22.372C71.6605 21.9992 71.3885 21.7171 71.0459 21.5256C70.7033 21.3241 70.3355 21.2233 69.9425 21.2233C69.5495 21.2233 69.1868 21.3191 68.8543 21.5105C68.5217 21.702 68.2497 21.9841 68.0381 22.3569C67.8366 22.7197 67.7358 23.153 67.7358 23.6568C67.7358 24.1606 67.8366 24.604 68.0381 24.9869C68.2497 25.3597 68.5217 25.6469 68.8543 25.8484C69.1969 26.0499 69.5596 26.1507 69.9425 26.1507C70.3355 26.1507 70.7033 26.0549 71.0459 25.8635C71.3885 25.662 71.6605 25.3798 71.8621 25.0171C72.0636 24.6443 72.1644 24.2009 72.1644 23.687Z" fill="black"/>
<path d="M83.6063 27.9795C82.8707 27.9795 82.2057 27.8536 81.6112 27.6017C81.0268 27.3498 80.5632 26.987 80.2206 26.5134C79.878 26.0398 79.7017 25.4806 79.6916 24.8357H81.9588C81.989 25.269 82.1402 25.6116 82.4122 25.8635C82.6944 26.1154 83.0773 26.2414 83.561 26.2414C84.0547 26.2414 84.4426 26.1255 84.7248 25.8937C85.0069 25.6519 85.148 25.3395 85.148 24.9566C85.148 24.6443 85.0523 24.3873 84.8608 24.1858C84.6694 23.9843 84.4275 23.8281 84.1353 23.7172C83.8532 23.5963 83.4602 23.4653 82.9564 23.3243C82.2712 23.1227 81.7119 22.9262 81.2787 22.7348C80.8555 22.5333 80.4877 22.236 80.1753 21.843C79.873 21.44 79.7219 20.9059 79.7219 20.2409C79.7219 19.6161 79.878 19.072 80.1904 18.6085C80.5028 18.145 80.9411 17.7923 81.5054 17.5505C82.0697 17.2986 82.7145 17.1726 83.44 17.1726C84.5283 17.1726 85.41 17.4397 86.0851 17.9737C86.7703 18.4977 87.1481 19.2332 87.2187 20.1804H84.891C84.8709 19.8177 84.7147 19.5204 84.4225 19.2887C84.1403 19.0468 83.7625 18.9259 83.2889 18.9259C82.8758 18.9259 82.5432 19.0317 82.2913 19.2433C82.0495 19.4549 81.9286 19.7623 81.9286 20.1653C81.9286 20.4474 82.0193 20.6842 82.2006 20.8757C82.3921 21.0571 82.6239 21.2082 82.8959 21.3291C83.1781 21.44 83.571 21.571 84.0748 21.7221C84.76 21.9236 85.3193 22.1252 85.7526 22.3267C86.1858 22.5282 86.5587 22.8305 86.871 23.2336C87.1834 23.6366 87.3396 24.1656 87.3396 24.8206C87.3396 25.3849 87.1935 25.9088 86.9013 26.3925C86.6091 26.8762 86.1808 27.2641 85.6165 27.5563C85.0523 27.8385 84.3822 27.9795 83.6063 27.9795Z" fill="black"/>
<path d="M91.6378 21.2384V25.2891C91.6378 25.5713 91.7033 25.7778 91.8343 25.9088C91.9753 26.0298 92.2071 26.0902 92.5295 26.0902H93.512V27.8737H92.1819C90.3984 27.8737 89.5066 27.0072 89.5066 25.274V21.2384H88.5091V19.5003H89.5066V17.4296H91.6378V19.5003H93.512V21.2384H91.6378Z" fill="black"/>
<path d="M98.7521 28.0098C97.946 28.0098 97.2205 27.8334 96.5756 27.4808C95.9308 27.118 95.4219 26.6091 95.0491 25.9542C94.6863 25.2992 94.5049 24.5435 94.5049 23.687C94.5049 22.8305 94.6914 22.0748 95.0642 21.4198C95.4471 20.7649 95.966 20.261 96.621 19.9084C97.2759 19.5456 98.0065 19.3642 98.8126 19.3642C99.6187 19.3642 100.349 19.5456 101.004 19.9084C101.659 20.261 102.173 20.7649 102.546 21.4198C102.929 22.0748 103.12 22.8305 103.12 23.687C103.12 24.5435 102.924 25.2992 102.531 25.9542C102.148 26.6091 101.624 27.118 100.959 27.4808C100.304 27.8334 99.5683 28.0098 98.7521 28.0098ZM98.7521 26.1658C99.135 26.1658 99.4927 26.0751 99.8253 25.8937C100.168 25.7023 100.44 25.4201 100.641 25.0473C100.843 24.6745 100.944 24.221 100.944 23.687C100.944 22.891 100.732 22.2813 100.309 21.8581C99.8958 21.4249 99.3869 21.2082 98.7824 21.2082C98.1778 21.2082 97.6689 21.4249 97.2558 21.8581C96.8527 22.2813 96.6512 22.891 96.6512 23.687C96.6512 24.483 96.8477 25.0977 97.2407 25.531C97.6437 25.9542 98.1475 26.1658 98.7521 26.1658Z" fill="black"/>
<path d="M106.788 20.8001C107.061 20.3568 107.413 20.0091 107.846 19.7572C108.29 19.5053 108.794 19.3794 109.358 19.3794V21.6012H108.799C108.134 21.6012 107.63 21.7574 107.287 22.0697C106.955 22.3821 106.788 22.9262 106.788 23.7021V27.8737H104.672V19.5003H106.788V20.8001Z" fill="black"/>
<path d="M110.239 23.6568C110.239 22.8104 110.405 22.0597 110.738 21.4047C111.08 20.7497 111.539 20.2459 112.113 19.8933C112.698 19.5406 113.348 19.3642 114.063 19.3642C114.688 19.3642 115.232 19.4902 115.695 19.7421C116.169 19.994 116.547 20.3114 116.829 20.6943V19.5003H118.96V27.8737H116.829V26.6495C116.557 27.0424 116.179 27.3699 115.695 27.6319C115.222 27.8838 114.673 28.0098 114.048 28.0098C113.343 28.0098 112.698 27.8284 112.113 27.4656C111.539 27.1029 111.08 26.594 110.738 25.9391C110.405 25.274 110.239 24.5133 110.239 23.6568ZM116.829 23.687C116.829 23.1731 116.728 22.7348 116.527 22.372C116.325 21.9992 116.053 21.7171 115.711 21.5256C115.368 21.3241 115 21.2233 114.607 21.2233C114.214 21.2233 113.851 21.3191 113.519 21.5105C113.186 21.702 112.914 21.9841 112.703 22.3569C112.501 22.7197 112.4 23.153 112.4 23.6568C112.4 24.1606 112.501 24.604 112.703 24.9869C112.914 25.3597 113.186 25.6469 113.519 25.8484C113.862 26.0499 114.224 26.1507 114.607 26.1507C115 26.1507 115.368 26.0549 115.711 25.8635C116.053 25.662 116.325 25.3798 116.527 25.0171C116.728 24.6443 116.829 24.2009 116.829 23.687Z" fill="black"/>
<path d="M124.307 19.3642C124.931 19.3642 125.481 19.4902 125.954 19.7421C126.428 19.9839 126.801 20.3013 127.073 20.6943V19.5003H129.204V27.9342C129.204 28.7101 129.048 29.4003 128.735 30.0049C128.423 30.6195 127.954 31.1032 127.33 31.4559C126.705 31.8186 125.949 32 125.062 32C123.873 32 122.896 31.7229 122.13 31.1687C121.374 30.6145 120.946 29.8588 120.845 28.9015H122.946C123.057 29.2844 123.294 29.5867 123.657 29.8084C124.03 30.0401 124.478 30.156 125.002 30.156C125.617 30.156 126.115 29.9696 126.498 29.5968C126.881 29.234 127.073 28.6798 127.073 27.9342V26.6343C126.801 27.0273 126.423 27.3548 125.939 27.6168C125.465 27.8788 124.921 28.0098 124.307 28.0098C123.601 28.0098 122.956 27.8284 122.372 27.4656C121.788 27.1029 121.324 26.594 120.981 25.9391C120.649 25.274 120.483 24.5133 120.483 23.6568C120.483 22.8104 120.649 22.0597 120.981 21.4047C121.324 20.7497 121.783 20.2459 122.357 19.8933C122.941 19.5406 123.591 19.3642 124.307 19.3642ZM127.073 23.687C127.073 23.1731 126.972 22.7348 126.77 22.372C126.569 21.9992 126.297 21.7171 125.954 21.5256C125.612 21.3241 125.244 21.2233 124.851 21.2233C124.458 21.2233 124.095 21.3191 123.763 21.5105C123.43 21.702 123.158 21.9841 122.946 22.3569C122.745 22.7197 122.644 23.153 122.644 23.6568C122.644 24.1606 122.745 24.604 122.946 24.9869C123.158 25.3597 123.43 25.6469 123.763 25.8484C124.105 26.0499 124.468 26.1507 124.851 26.1507C125.244 26.1507 125.612 26.0549 125.954 25.8635C126.297 25.662 126.569 25.3798 126.77 25.0171C126.972 24.6443 127.073 24.2009 127.073 23.687Z" fill="black"/>
<path d="M139.054 23.5056C139.054 23.8079 139.034 24.08 138.994 24.3218H132.873C132.923 24.9264 133.135 25.4 133.507 25.7426C133.88 26.0852 134.339 26.2565 134.883 26.2565C135.669 26.2565 136.228 25.9189 136.561 25.2438H138.843C138.601 26.0499 138.138 26.7149 137.452 27.2389C136.767 27.7528 135.926 28.0098 134.928 28.0098C134.122 28.0098 133.397 27.8334 132.752 27.4808C132.117 27.118 131.618 26.6091 131.255 25.9542C130.903 25.2992 130.726 24.5435 130.726 23.687C130.726 22.8204 130.903 22.0597 131.255 21.4047C131.608 20.7497 132.102 20.2459 132.737 19.8933C133.371 19.5406 134.102 19.3642 134.928 19.3642C135.724 19.3642 136.435 19.5355 137.059 19.8781C137.694 20.2207 138.183 20.7094 138.525 21.3442C138.878 21.969 139.054 22.6894 139.054 23.5056ZM136.863 22.901C136.853 22.3569 136.656 21.9236 136.273 21.6012C135.89 21.2687 135.422 21.1024 134.868 21.1024C134.344 21.1024 133.9 21.2636 133.538 21.5861C133.185 21.8984 132.968 22.3368 132.888 22.901H136.863Z" fill="black"/>
</g>
<defs>
<clipPath id="clip0_119_1217">
<rect width="139.556" height="32" fill="white"/>
</clipPath>
</defs>
</svg>
