<svg width="16" height="16" viewBox="0 0 16 16" fill="none" xmlns="http://www.w3.org/2000/svg">
<path fill-rule="evenodd" clip-rule="evenodd" d="M6.39853 2.55146C6.6462 2.77161 6.66851 3.15086 6.44835 3.39853L3.78169 6.39853C3.66783 6.52662 3.50462 6.59991 3.33324 6.59991C3.16186 6.59991 2.99866 6.52662 2.8848 6.39853L1.55146 4.89853C1.33131 4.65086 1.35362 4.27161 1.60129 4.05146C1.84896 3.83131 2.2282 3.85362 2.44835 4.10129L3.33324 5.09679L5.55146 2.60129C5.77161 2.35362 6.15086 2.33131 6.39853 2.55146Z" fill="black" fill-opacity="0.87"/>
<path fill-rule="evenodd" clip-rule="evenodd" d="M6.39853 8.55146C6.6462 8.77161 6.66851 9.15086 6.44835 9.39853L3.78169 12.3985C3.66783 12.5266 3.50462 12.5999 3.33324 12.5999C3.16186 12.5999 2.99866 12.5266 2.8848 12.3985L1.55146 10.8985C1.33131 10.6509 1.35362 10.2716 1.60129 10.0515C1.84896 9.83131 2.2282 9.85362 2.44835 10.1013L3.33324 11.0968L5.55146 8.60129C5.77161 8.35362 6.15086 8.33131 6.39853 8.55146Z" fill="black" fill-opacity="0.87"/>
<path fill-rule="evenodd" clip-rule="evenodd" d="M7.3999 4.9999C7.3999 4.66853 7.66853 4.3999 7.9999 4.3999H13.9999C14.3313 4.3999 14.5999 4.66853 14.5999 4.9999C14.5999 5.33127 14.3313 5.5999 13.9999 5.5999H7.9999C7.66853 5.5999 7.3999 5.33127 7.3999 4.9999Z" fill="black" fill-opacity="0.87"/>
<path fill-rule="evenodd" clip-rule="evenodd" d="M7.3999 10.9999C7.3999 10.6685 7.66853 10.3999 7.9999 10.3999H13.9999C14.3313 10.3999 14.5999 10.6685 14.5999 10.9999C14.5999 11.3313 14.3313 11.5999 13.9999 11.5999H7.9999C7.66853 11.5999 7.3999 11.3313 7.3999 10.9999Z" fill="black" fill-opacity="0.87"/>
</svg>
