<svg width="16" height="16" viewBox="0 0 16 16" fill="none" xmlns="http://www.w3.org/2000/svg">
<path fill-rule="evenodd" clip-rule="evenodd" d="M7.70144 12.1528C7.79412 12.1992 7.89644 12.223 8.00006 12.2223C8.10368 12.223 8.206 12.1992 8.29868 12.1528C8.39136 12.1065 8.47178 12.0389 8.53339 11.9556L13.8667 4.8445C13.9417 4.74496 13.9873 4.62641 13.9983 4.50228C14.0093 4.37816 13.9852 4.25344 13.929 4.14228C13.8723 4.03305 13.7869 3.94138 13.6819 3.87715C13.5769 3.81292 13.4564 3.77858 13.3334 3.77783H2.66673C2.54368 3.77858 2.42317 3.81292 2.31822 3.87715C2.21326 3.94138 2.12784 4.03305 2.07117 4.14228C2.01488 4.25344 1.99087 4.37816 2.00187 4.50228C2.01287 4.62641 2.05843 4.74496 2.13339 4.8445L7.46673 11.9556C7.52834 12.0389 7.60876 12.1065 7.70144 12.1528Z" fill="black" fill-opacity="0.87"/>
</svg>
