<svg width="16" height="16" viewBox="0 0 16 16" fill="none" xmlns="http://www.w3.org/2000/svg">
<path fill-rule="evenodd" clip-rule="evenodd" d="M4.15117 13.9289C4.24233 13.9744 4.34261 13.9987 4.4445 14C4.58885 14.0007 4.72941 13.9538 4.8445 13.8667L11.9556 8.53335C12.0384 8.47125 12.1056 8.39072 12.1519 8.29815C12.1982 8.20558 12.2223 8.10351 12.2223 8.00001C12.2223 7.89651 12.1982 7.79444 12.1519 7.70187C12.1056 7.6093 12.0384 7.52878 11.9556 7.46668L4.8445 2.13334C4.74632 2.05916 4.6293 2.014 4.50674 2.003C4.38417 1.992 4.26098 2.0156 4.15117 2.07112C4.03964 2.12577 3.9456 2.21047 3.87963 2.3157C3.81367 2.42093 3.77841 2.54249 3.77783 2.66668V13.3333C3.77841 13.4575 3.81367 13.5791 3.87963 13.6843C3.9456 13.7895 4.03964 13.8743 4.15117 13.9289Z" fill="black" fill-opacity="0.87"/>
</svg>
