<svg width="16" height="16" viewBox="0 0 16 16" fill="none" xmlns="http://www.w3.org/2000/svg">
<path fill-rule="evenodd" clip-rule="evenodd" d="M5.09221 1.9999C5.09221 1.66853 5.36084 1.3999 5.69221 1.3999H10.3076C10.639 1.3999 10.9076 1.66853 10.9076 1.9999V5.09221H13.9999C14.3313 5.09221 14.5999 5.36084 14.5999 5.69221V10.3076C14.5999 10.639 14.3313 10.9076 13.9999 10.9076H10.9076V13.9999C10.9076 14.3313 10.639 14.5999 10.3076 14.5999H5.69221C5.36084 14.5999 5.09221 14.3313 5.09221 13.9999V10.9076H1.9999C1.66853 10.9076 1.3999 10.639 1.3999 10.3076V5.69221C1.3999 5.36084 1.66853 5.09221 1.9999 5.09221H5.09221V1.9999ZM6.29221 2.5999V5.69221C6.29221 6.02358 6.02358 6.29221 5.69221 6.29221H2.5999V9.70759H5.69221C6.02358 9.70759 6.29221 9.97622 6.29221 10.3076V13.3999H9.70759V10.3076C9.70759 9.97622 9.97622 9.70759 10.3076 9.70759H13.3999V6.29221H10.3076C9.97622 6.29221 9.70759 6.02358 9.70759 5.69221V2.5999H6.29221Z" fill="black" fill-opacity="0.87"/>
</svg>
