<svg width="175" height="40" viewBox="0 0 175 40" fill="none" xmlns="http://www.w3.org/2000/svg">
<path d="M36.25 26.25C36.25 31.7728 31.7728 36.25 26.25 36.25C20.7272 36.25 16.25 31.7728 16.25 26.25C16.25 20.7272 20.7272 16.25 26.25 16.25C31.7728 16.25 36.25 20.7272 36.25 26.25Z" fill="#DF8C40"/>
<path d="M17.5 15.625C17.5 19.422 14.422 22.5 10.625 22.5C6.82804 22.5 3.75 19.422 3.75 15.625C3.75 11.828 6.82804 8.75 10.625 8.75C14.422 8.75 17.5 11.828 17.5 15.625Z" fill="#409CDF"/>
<path d="M27.5 8.75C27.5 11.5114 25.2614 13.75 22.5 13.75C19.7386 13.75 17.5 11.5114 17.5 8.75C17.5 5.98858 19.7386 3.75 22.5 3.75C25.2614 3.75 27.5 5.98858 27.5 8.75Z" fill="#9940DF"/>
<path fill-rule="evenodd" clip-rule="evenodd" d="M20 24.375C24.1421 24.375 27.5 21.0171 27.5 16.875C27.5 16.69 27.4933 16.5066 27.4801 16.3249C27.077 16.2755 26.6665 16.25 26.25 16.25C21.6559 16.25 17.7854 19.3479 16.6135 23.5687C17.6308 24.0844 18.7815 24.375 20 24.375Z" fill="#112054"/>
<path fill-rule="evenodd" clip-rule="evenodd" d="M14.1283 21.5417C16.1469 20.3439 17.5 18.1425 17.5 15.625C17.5 13.7618 16.7588 12.0717 15.5552 10.8334C13.7022 12.199 12.5 14.3966 12.5 16.875C12.5 18.6391 13.109 20.2609 14.1283 21.5417Z" fill="#112054"/>
<path fill-rule="evenodd" clip-rule="evenodd" d="M17.6033 9.76609C18.3559 9.51247 19.1619 9.375 20 9.375C22.4395 9.375 24.607 10.5397 25.9767 12.3434C25.0769 13.2142 23.851 13.75 22.5 13.75C20.0868 13.75 18.0728 12.0403 17.6033 9.76609Z" fill="#112054"/>
<path d="M56.82 33.85C65.18 33.85 70.5 29.69 70.5 22.89V22.29H63.82V22.89C63.82 26.41 61.82 28.09 56.94 28.09C51.06 28.09 48.86 26.01 48.86 20.05C48.86 14.09 51.06 12.01 56.94 12.01C61.82 12.01 63.82 13.69 63.82 17.21V17.81H70.5V17.21C70.5 10.41 65.14 6.25 56.82 6.25C47.98 6.25 42.5 11.69 42.5 20.05C42.5 28.41 47.98 33.85 56.82 33.85Z" fill="#112054"/>
<path d="M88.02 33.45V12.05H97.98V6.65H72.06V12.05H82.02V33.45H88.02Z" fill="#112054"/>
<path d="M106.131 33.45V6.65H100.131V33.45H106.131Z" fill="#112054"/>
<path d="M115.272 33.45V19.85L115.032 15.65H115.472L117.032 19.85L122.632 31.85H129.912L135.512 19.85L137.072 15.65H137.512L137.312 19.85V33.45H143.312V6.65H135.152L129.072 19.85L126.632 26.13H126.192L123.672 19.85L117.392 6.65H109.272V33.45H115.272Z" fill="#112054"/>
<path d="M158.619 33.85C167.139 33.85 170.539 29.93 170.539 25.57C170.539 21.89 168.379 18.97 162.379 18.01L154.859 16.81C152.619 16.41 151.739 15.85 151.739 14.29C151.739 12.57 153.059 11.73 157.379 11.73C162.699 11.73 164.019 12.81 164.019 15.37V15.93H170.059V15.69C170.059 10.05 166.219 6.25 157.979 6.25C148.979 6.25 145.699 10.49 145.699 14.53C145.699 18.89 148.539 21.29 153.339 22.05L160.859 23.13C163.619 23.61 164.539 24.21 164.539 25.85C164.539 27.65 163.419 28.37 158.619 28.37C153.179 28.37 151.939 27.37 151.939 24.89V24.17H145.939V24.41C145.939 30.65 150.499 33.85 158.619 33.85Z" fill="#112054"/>
</svg>
