<svg width="16" height="16" viewBox="0 0 16 16" fill="none" xmlns="http://www.w3.org/2000/svg">
<g clip-path="url(#clip0_1296_837)">
<path fill-rule="evenodd" clip-rule="evenodd" d="M11.2525 1.35325C11.4868 1.11894 11.4868 0.739041 11.2525 0.504726C11.0182 0.270412 10.6383 0.270412 10.404 0.504726C9.64302 1.26571 9.40907 2.16714 9.42178 3.06981C9.42935 3.607 9.52493 4.16032 9.6478 4.69825C9.10985 4.57537 8.55651 4.47979 8.0193 4.47222C7.11663 4.45951 6.2152 4.69346 5.45422 5.45444C4.69324 6.21542 4.45929 7.11685 4.472 8.01952C4.47956 8.55673 4.57515 9.11007 4.69803 9.64802C4.1601 9.52515 3.60678 9.42957 3.06959 9.422C2.16692 9.40929 1.26549 9.64324 0.504506 10.4042C0.270192 10.6385 0.270192 11.0184 0.504506 11.2527C0.738821 11.4871 1.11872 11.4871 1.35303 11.2527C1.45208 11.1537 1.5546 11.0682 1.66087 10.9949L5.00497 14.339C4.93169 14.4453 4.84616 14.5478 4.74711 14.6468C4.5128 14.8811 4.5128 15.261 4.74711 15.4954C4.98143 15.7297 5.36133 15.7297 5.59564 15.4954C6.35662 14.7344 6.59057 13.8329 6.57786 12.9303C6.57029 12.3931 6.47471 11.8398 6.35184 11.3018C6.88979 11.4247 7.44313 11.5203 7.98034 11.5279C8.88301 11.5406 9.78444 11.3066 10.5454 10.5456C11.3064 9.78466 11.5404 8.88323 11.5276 7.98056C11.5201 7.44335 11.4245 6.89001 11.3016 6.35206C11.8395 6.47493 12.3929 6.57051 12.9301 6.57808C13.8327 6.59079 14.7342 6.35684 15.4951 5.59586C15.7294 5.36155 15.7294 4.98165 15.4951 4.74733C15.2608 4.51302 14.8809 4.51302 14.6466 4.74733C14.5476 4.84638 14.445 4.93191 14.3388 5.00519L10.9947 1.66109C11.068 1.55482 11.1535 1.4523 11.2525 1.35325ZM5.37833 13.0153L2.98456 10.6215C3.00714 10.6214 3.02985 10.6216 3.05269 10.6219C3.65661 10.6304 4.31157 10.78 5.0333 10.9666C5.21984 11.6883 5.36947 12.3433 5.37798 12.9472C5.3783 12.97 5.37842 12.9927 5.37833 13.0153ZM10.6213 2.98478L13.0151 5.37855C12.9925 5.37864 12.9698 5.37852 12.947 5.3782C12.343 5.36969 11.6881 5.22006 10.9663 5.03352C10.7798 4.31179 10.6302 3.65683 10.6217 3.05291C10.6213 3.03007 10.6212 3.00736 10.6213 2.98478ZM9.98307 6.01679C10.1696 6.73855 10.3193 7.39353 10.3278 7.99746C10.3281 8.0203 10.3282 8.04301 10.3281 8.06559L7.93427 5.67175C7.95685 5.67166 7.97956 5.67178 8.0024 5.6721C8.60634 5.68061 9.26132 5.83025 9.98307 6.01679ZM9.69689 9.69711C9.79594 9.59807 9.88147 9.49555 9.95475 9.38928L6.61058 6.04511C6.50432 6.11839 6.40179 6.20392 6.30275 6.30297C6.2037 6.40201 6.11817 6.50454 6.04489 6.6108L9.38906 9.95497C9.49533 9.88169 9.59785 9.79616 9.69689 9.69711ZM8.06537 10.3283L5.67153 7.93449C5.67144 7.95707 5.67156 7.97978 5.67188 8.00262C5.68039 8.60656 5.83003 9.26154 6.01657 9.98329C6.73833 10.1698 7.3933 10.3195 7.99724 10.328C8.02008 10.3283 8.04279 10.3284 8.06537 10.3283Z" fill="black" fill-opacity="0.87"/>
</g>
<defs>
<clipPath id="clip0_1296_837">
<rect width="16" height="16" fill="white"/>
</clipPath>
</defs>
</svg>
