<svg width="16" height="16" viewBox="0 0 16 16" fill="none" xmlns="http://www.w3.org/2000/svg">
<path d="M11.1356 14.0546C10.99 14.0546 10.873 14.0156 10.7846 13.9376C10.6962 13.8544 10.6494 13.7504 10.6442 13.6256C10.6442 13.5008 10.6962 13.3734 10.8002 13.2434L12.0092 11.7614V12.2918L10.886 10.919C10.7768 10.7838 10.7248 10.6538 10.73 10.529C10.7352 10.4042 10.782 10.3028 10.8704 10.2248C10.9588 10.1468 11.0758 10.1078 11.2214 10.1078C11.3618 10.1078 11.4788 10.1312 11.5724 10.178C11.666 10.2248 11.7544 10.3028 11.8376 10.412L12.6722 11.4806H12.2588L13.0934 10.412C13.1818 10.3028 13.2728 10.2248 13.3664 10.178C13.46 10.1312 13.5744 10.1078 13.7096 10.1078C13.8552 10.1078 13.9722 10.1494 14.0606 10.2326C14.149 10.3106 14.1932 10.412 14.1932 10.5368C14.1984 10.6616 14.1464 10.789 14.0372 10.919L12.914 12.2918V11.7614L14.1308 13.2434C14.24 13.3682 14.292 13.493 14.2868 13.6178C14.2816 13.7426 14.2322 13.8466 14.1386 13.9298C14.0502 14.013 13.9332 14.0546 13.7876 14.0546C13.6472 14.0546 13.5302 14.0312 13.4366 13.9844C13.3482 13.9324 13.2598 13.8544 13.1714 13.7504L12.2588 12.5882H12.6566L11.744 13.7504C11.6608 13.8492 11.5724 13.9246 11.4788 13.9766C11.3904 14.0286 11.276 14.0546 11.1356 14.0546Z" fill="black"/>
<path d="M3.19845 12.104C2.92979 12.104 2.72179 12.0303 2.57446 11.883C2.43579 11.727 2.36646 11.5146 2.36646 11.246V3.67996C2.36646 3.40263 2.44012 3.19463 2.58746 3.05596C2.73479 2.90863 2.94279 2.83496 3.21145 2.83496H6.34446C7.34979 2.83496 8.12546 3.07763 8.67146 3.56296C9.21746 4.03963 9.49045 4.71129 9.49045 5.57796C9.49045 6.14129 9.36479 6.62663 9.11345 7.03396C8.87079 7.44129 8.51546 7.75329 8.04745 7.96996C7.57945 8.18663 7.01179 8.29496 6.34446 8.29496L6.46146 8.09996H6.89046C7.24579 8.09996 7.55346 8.18663 7.81346 8.35996C8.08212 8.53329 8.31612 8.80629 8.51546 9.17896L9.49045 10.986C9.59445 11.168 9.64212 11.3456 9.63346 11.519C9.62479 11.6923 9.55979 11.8353 9.43846 11.948C9.31712 12.052 9.13946 12.104 8.90546 12.104C8.67146 12.104 8.48079 12.0563 8.33346 11.961C8.18612 11.857 8.05612 11.701 7.94346 11.493L6.63046 9.07496C6.47445 8.78029 6.28812 8.58529 6.07146 8.48996C5.86346 8.38596 5.59479 8.33396 5.26546 8.33396H4.03045V11.246C4.03045 11.5146 3.96112 11.727 3.82246 11.883C3.68379 12.0303 3.47579 12.104 3.19845 12.104ZM4.03045 7.09896H6.05846C6.65646 7.09896 7.10712 6.97763 7.41046 6.73496C7.72246 6.48363 7.87846 6.11096 7.87846 5.61696C7.87846 5.13163 7.72246 4.76763 7.41046 4.52496C7.10712 4.27363 6.65646 4.14796 6.05846 4.14796H4.03045V7.09896Z" fill="black"/>
</svg>
